<svg width="73" height="78" viewBox="0 0 73 78" fill="none" xmlns="http://www.w3.org/2000/svg">
<g clip-path="url(#clip0_3623_324)">
<path d="M24.0244 10.9688L36.5 25.1367L48.9755 10.9688H24.0244ZM54.7357 15.0973L44.413 26.8125H62.8056L54.7357 15.0973ZM61.8646 34.125H11.1353L36.5 64.0301L61.8646 34.125ZM10.1943 26.8125H28.5869L18.2642 15.0973L10.1943 26.8125ZM72.116 32.9215L39.0378 71.9215C38.382 72.6832 37.4695 73.125 36.5 73.125C35.5304 73.125 34.6179 72.6832 33.9621 71.9215L0.883946 32.9215C-0.213905 31.6266 -0.299452 29.6918 0.670079 28.2902L16.6388 5.13399C17.2804 4.20469 18.307 3.64102 19.3906 3.64102H53.6093C54.6929 3.64102 55.7195 4.18946 56.3611 5.13399L72.3298 28.2902C73.2994 29.6918 73.1996 31.6266 72.116 32.9215V32.9215Z" fill="#C55E6F"/>
</g>
<defs>
<clipPath id="clip0_3623_324">
<rect width="73" height="78" fill="white"/>
</clipPath>
</defs>
</svg>
