<svg width="56" height="78" viewBox="0 0 56 78" fill="none" xmlns="http://www.w3.org/2000/svg">
<g clip-path="url(#clip0_3624_362)">
<path d="M0 3.65625C0 1.6377 1.56771 0 3.5 0H52.5C54.4396 0 56 1.6377 56 3.65625C56 5.6748 54.4396 7.3125 52.5 7.3125H51.3333V10.204C51.3333 16.3465 48.8687 22.1051 44.8438 26.584L32.9437 39L44.8438 51.416C48.8687 55.7578 51.3333 61.6535 51.3333 67.793V70.6875H52.5C54.4396 70.6875 56 72.3176 56 74.3438C56 76.3699 54.4396 78 52.5 78H3.5C1.56771 78 0 76.3699 0 74.3438C0 72.3176 1.56771 70.6875 3.5 70.6875H4.66667V67.793C4.66667 61.6535 7.00146 55.7578 11.1592 51.416L23.0562 39L11.1592 26.584C7.00146 22.1051 4.66667 16.3465 4.66667 10.204V7.3125H3.5C1.56771 7.3125 0 5.6748 0 3.65625ZM14.5512 58.5H41.4458C40.9792 57.8297 40.4542 57.1898 39.8854 56.5957L28 44.1645L16.1146 56.5957C15.5458 57.1898 14.8896 57.8297 14.5512 58.5ZM41.4458 19.5C43.1813 16.8188 44.3333 13.5632 44.3333 10.204V7.3125H11.6667V10.204C11.6667 13.5632 12.6875 16.8188 14.5512 19.5H41.4458Z" fill="#C55E6F"/>
</g>
<defs>
<clipPath id="clip0_3624_362">
<rect width="56" height="78" fill="white"/>
</clipPath>
</defs>
</svg>
