<svg width="60" height="78" viewBox="0 0 60 78" fill="none" xmlns="http://www.w3.org/2000/svg">
<path d="M17.5156 69.2098C17.5156 70.1691 17.7994 71.1049 18.3412 71.9047L21.0194 75.8184C21.8397 77.0182 23.7022 77.9939 25.1819 77.9939H34.8178C36.2925 77.9939 38.1553 77.0188 38.9756 75.8184L41.6444 71.9063C42.1034 71.2302 42.48 70.0218 42.48 69.2098L42.5 63.2379H17.5L17.5156 69.2098ZM30 0C14.0656 0.04875 2.5 12.64 2.5 26.6754C2.5 33.4364 5.06875 39.6002 9.30625 44.3168C11.8891 47.187 15.9219 53.1878 17.4656 58.2486C17.4705 58.2867 17.4803 58.3274 17.4852 58.3678H42.5164C42.5212 58.3274 42.5311 58.2892 42.5359 58.2486C44.0789 53.1878 48.1125 47.187 50.6953 44.3168C54.9375 39.7313 57.5 33.5766 57.5 26.6754C57.5 12.0047 45.1875 0.000609375 30 0ZM45.0625 39.6246C42.6156 42.344 39.5875 46.6781 37.3984 51.186H22.6156C20.4266 46.6781 17.3984 42.3439 14.9531 39.6261C11.7562 36.075 10 31.3981 10 26.6754C10 17.2605 17.5156 7.35059 29.8594 7.3125C41.0312 7.3125 50 16.057 50 26.6754C50 31.3981 48.25 36.075 45.0625 39.6246ZM27.5 12.1875C20.6094 12.1875 15 17.6566 15 24.375C15 25.7223 16.1181 26.8125 17.5 26.8125C18.8819 26.8125 20 25.7156 20 24.375C20 20.3425 23.3641 17.0625 27.5 17.0625C28.8819 17.0625 30 15.9735 30 14.6265C30 13.2795 28.875 12.1875 27.5 12.1875Z" fill="#C55E6F"/>
</svg>
